<?xml version="1.0" encoding="UTF-8"?>
<!DOCTYPE svg PUBLIC "-//W3C//DTD SVG 1.1//EN" "http://www.w3.org/Graphics/SVG/1.1/DTD/svg11.dtd">
<svg xmlns="http://www.w3.org/2000/svg" xmlns:xlink="http://www.w3.org/1999/xlink" version="1.1" width="132px" height="105px" viewBox="-0.5 -0.5 132 105" style="background-color: rgb(255, 255, 255);"><defs/><g><path d="M 7 96 L 116.63 96" fill="none" stroke="rgb(0, 0, 0)" stroke-miterlimit="10" pointer-events="stroke"/><path d="M 121.88 96 L 114.88 99.5 L 116.63 96 L 114.88 92.5 Z" fill="rgb(0, 0, 0)" stroke="rgb(0, 0, 0)" stroke-miterlimit="10" pointer-events="all"/><path d="M 7 96 L 7 13.37" fill="none" stroke="rgb(0, 0, 0)" stroke-miterlimit="10" pointer-events="stroke"/><path d="M 7 8.12 L 10.5 15.12 L 7 13.37 L 3.5 15.12 Z" fill="rgb(0, 0, 0)" stroke="rgb(0, 0, 0)" stroke-miterlimit="10" pointer-events="all"/><path d="M 7 96 L 42.27 64.26" fill="none" stroke="rgb(0, 0, 0)" stroke-miterlimit="10" pointer-events="stroke"/><path d="M 46.17 60.75 L 43.31 68.03 L 42.27 64.26 L 38.62 62.83 Z" fill="rgb(0, 0, 0)" stroke="rgb(0, 0, 0)" stroke-miterlimit="10" pointer-events="all"/><path d="M 58.5 65.12 L 73.5 65.12 L 78.5 70.12 L 78.5 83 L 63.5 83 L 58.5 78 L 58.5 65.12 Z" fill="rgb(255, 255, 255)" stroke="rgb(0, 0, 0)" stroke-miterlimit="10" transform="translate(68.5,0)scale(-1,1)translate(-68.5,0)" pointer-events="all"/><path d="M 58.5 65.12 L 73.5 65.12 L 78.5 70.12 L 63.5 70.12 Z" fill-opacity="0.05" fill="#000000" stroke="none" transform="translate(68.5,0)scale(-1,1)translate(-68.5,0)" pointer-events="all"/><path d="M 58.5 65.12 L 63.5 70.12 L 63.5 83 L 58.5 78 Z" fill-opacity="0.1" fill="#000000" stroke="none" transform="translate(68.5,0)scale(-1,1)translate(-68.5,0)" pointer-events="all"/><path d="M 63.5 83 L 63.5 70.12 L 58.5 65.12 M 63.5 70.12 L 78.5 70.12" fill="none" stroke="rgb(0, 0, 0)" stroke-miterlimit="10" transform="translate(68.5,0)scale(-1,1)translate(-68.5,0)" pointer-events="all"/><path d="M 72.5 65.12 L 87.5 65.12 L 92.5 70.12 L 92.5 83 L 77.5 83 L 72.5 78 L 72.5 65.12 Z" fill="rgb(255, 255, 255)" stroke="rgb(0, 0, 0)" stroke-miterlimit="10" transform="translate(82.5,0)scale(-1,1)translate(-82.5,0)" pointer-events="all"/><path d="M 72.5 65.12 L 87.5 65.12 L 92.5 70.12 L 77.5 70.12 Z" fill-opacity="0.05" fill="#000000" stroke="none" transform="translate(82.5,0)scale(-1,1)translate(-82.5,0)" pointer-events="all"/><path d="M 72.5 65.12 L 77.5 70.12 L 77.5 83 L 72.5 78 Z" fill-opacity="0.1" fill="#000000" stroke="none" transform="translate(82.5,0)scale(-1,1)translate(-82.5,0)" pointer-events="all"/><path d="M 77.5 83 L 77.5 70.12 L 72.5 65.12 M 77.5 70.12 L 92.5 70.12" fill="none" stroke="rgb(0, 0, 0)" stroke-miterlimit="10" transform="translate(82.5,0)scale(-1,1)translate(-82.5,0)" pointer-events="all"/><path d="M 87.5 65.12 L 102.5 65.12 L 107.5 70.12 L 107.5 83 L 92.5 83 L 87.5 78 L 87.5 65.12 Z" fill="rgb(255, 255, 255)" stroke="rgb(0, 0, 0)" stroke-miterlimit="10" transform="translate(97.5,0)scale(-1,1)translate(-97.5,0)" pointer-events="all"/><path d="M 87.5 65.12 L 102.5 65.12 L 107.5 70.12 L 92.5 70.12 Z" fill-opacity="0.05" fill="#000000" stroke="none" transform="translate(97.5,0)scale(-1,1)translate(-97.5,0)" pointer-events="all"/><path d="M 87.5 65.12 L 92.5 70.12 L 92.5 83 L 87.5 78 Z" fill-opacity="0.1" fill="#000000" stroke="none" transform="translate(97.5,0)scale(-1,1)translate(-97.5,0)" pointer-events="all"/><path d="M 92.5 83 L 92.5 70.12 L 87.5 65.12 M 92.5 70.12 L 107.5 70.12" fill="none" stroke="rgb(0, 0, 0)" stroke-miterlimit="10" transform="translate(97.5,0)scale(-1,1)translate(-97.5,0)" pointer-events="all"/><path d="M 58.5 53 L 73.5 53 L 78.5 58 L 78.5 70.88 L 63.5 70.88 L 58.5 65.88 L 58.5 53 Z" fill="rgb(255, 255, 255)" stroke="rgb(0, 0, 0)" stroke-miterlimit="10" transform="translate(68.5,0)scale(-1,1)translate(-68.5,0)" pointer-events="all"/><path d="M 58.5 53 L 73.5 53 L 78.5 58 L 63.5 58 Z" fill-opacity="0.05" fill="#000000" stroke="none" transform="translate(68.5,0)scale(-1,1)translate(-68.5,0)" pointer-events="all"/><path d="M 58.5 53 L 63.5 58 L 63.5 70.88 L 58.5 65.88 Z" fill-opacity="0.1" fill="#000000" stroke="none" transform="translate(68.5,0)scale(-1,1)translate(-68.5,0)" pointer-events="all"/><path d="M 63.5 70.88 L 63.5 58 L 58.5 53 M 63.5 58 L 78.5 58" fill="none" stroke="rgb(0, 0, 0)" stroke-miterlimit="10" transform="translate(68.5,0)scale(-1,1)translate(-68.5,0)" pointer-events="all"/><path d="M 72.5 53 L 87.5 53 L 92.5 58 L 92.5 70.88 L 77.5 70.88 L 72.5 65.88 L 72.5 53 Z" fill="rgb(255, 255, 255)" stroke="rgb(0, 0, 0)" stroke-miterlimit="10" transform="translate(82.5,0)scale(-1,1)translate(-82.5,0)" pointer-events="all"/><path d="M 72.5 53 L 87.5 53 L 92.5 58 L 77.5 58 Z" fill-opacity="0.05" fill="#000000" stroke="none" transform="translate(82.5,0)scale(-1,1)translate(-82.5,0)" pointer-events="all"/><path d="M 72.5 53 L 77.5 58 L 77.5 70.88 L 72.5 65.88 Z" fill-opacity="0.1" fill="#000000" stroke="none" transform="translate(82.5,0)scale(-1,1)translate(-82.5,0)" pointer-events="all"/><path d="M 77.5 70.88 L 77.5 58 L 72.5 53 M 77.5 58 L 92.5 58" fill="none" stroke="rgb(0, 0, 0)" stroke-miterlimit="10" transform="translate(82.5,0)scale(-1,1)translate(-82.5,0)" pointer-events="all"/><path d="M 87.5 53 L 102.5 53 L 107.5 58 L 107.5 70.88 L 92.5 70.88 L 87.5 65.88 L 87.5 53 Z" fill="rgb(255, 255, 255)" stroke="rgb(0, 0, 0)" stroke-miterlimit="10" transform="translate(97.5,0)scale(-1,1)translate(-97.5,0)" pointer-events="all"/><path d="M 87.5 53 L 102.5 53 L 107.5 58 L 92.5 58 Z" fill-opacity="0.05" fill="#000000" stroke="none" transform="translate(97.5,0)scale(-1,1)translate(-97.5,0)" pointer-events="all"/><path d="M 87.5 53 L 92.5 58 L 92.5 70.88 L 87.5 65.88 Z" fill-opacity="0.1" fill="#000000" stroke="none" transform="translate(97.5,0)scale(-1,1)translate(-97.5,0)" pointer-events="all"/><path d="M 92.5 70.88 L 92.5 58 L 87.5 53 M 92.5 58 L 107.5 58" fill="none" stroke="rgb(0, 0, 0)" stroke-miterlimit="10" transform="translate(97.5,0)scale(-1,1)translate(-97.5,0)" pointer-events="all"/><path d="M 58.5 40 L 73.5 40 L 78.5 45 L 78.5 57.88 L 63.5 57.88 L 58.5 52.88 L 58.5 40 Z" fill="rgb(255, 255, 255)" stroke="rgb(0, 0, 0)" stroke-miterlimit="10" transform="translate(68.5,0)scale(-1,1)translate(-68.5,0)" pointer-events="all"/><path d="M 58.5 40 L 73.5 40 L 78.5 45 L 63.5 45 Z" fill-opacity="0.05" fill="#000000" stroke="none" transform="translate(68.5,0)scale(-1,1)translate(-68.5,0)" pointer-events="all"/><path d="M 58.5 40 L 63.5 45 L 63.5 57.88 L 58.5 52.88 Z" fill-opacity="0.1" fill="#000000" stroke="none" transform="translate(68.5,0)scale(-1,1)translate(-68.5,0)" pointer-events="all"/><path d="M 63.5 57.88 L 63.5 45 L 58.5 40 M 63.5 45 L 78.5 45" fill="none" stroke="rgb(0, 0, 0)" stroke-miterlimit="10" transform="translate(68.5,0)scale(-1,1)translate(-68.5,0)" pointer-events="all"/><path d="M 72.5 40 L 87.5 40 L 92.5 45 L 92.5 57.88 L 77.5 57.88 L 72.5 52.88 L 72.5 40 Z" fill="rgb(255, 255, 255)" stroke="rgb(0, 0, 0)" stroke-miterlimit="10" transform="translate(82.5,0)scale(-1,1)translate(-82.5,0)" pointer-events="all"/><path d="M 72.5 40 L 87.5 40 L 92.5 45 L 77.5 45 Z" fill-opacity="0.05" fill="#000000" stroke="none" transform="translate(82.5,0)scale(-1,1)translate(-82.5,0)" pointer-events="all"/><path d="M 72.5 40 L 77.5 45 L 77.5 57.88 L 72.5 52.88 Z" fill-opacity="0.1" fill="#000000" stroke="none" transform="translate(82.5,0)scale(-1,1)translate(-82.5,0)" pointer-events="all"/><path d="M 77.5 57.88 L 77.5 45 L 72.5 40 M 77.5 45 L 92.5 45" fill="none" stroke="rgb(0, 0, 0)" stroke-miterlimit="10" transform="translate(82.5,0)scale(-1,1)translate(-82.5,0)" pointer-events="all"/><path d="M 87.5 40 L 102.5 40 L 107.5 45 L 107.5 57.88 L 92.5 57.88 L 87.5 52.88 L 87.5 40 Z" fill="rgb(255, 255, 255)" stroke="rgb(0, 0, 0)" stroke-miterlimit="10" transform="translate(97.5,0)scale(-1,1)translate(-97.5,0)" pointer-events="all"/><path d="M 87.5 40 L 102.5 40 L 107.5 45 L 92.5 45 Z" fill-opacity="0.05" fill="#000000" stroke="none" transform="translate(97.5,0)scale(-1,1)translate(-97.5,0)" pointer-events="all"/><path d="M 87.5 40 L 92.5 45 L 92.5 57.88 L 87.5 52.88 Z" fill-opacity="0.1" fill="#000000" stroke="none" transform="translate(97.5,0)scale(-1,1)translate(-97.5,0)" pointer-events="all"/><path d="M 92.5 57.88 L 92.5 45 L 87.5 40 M 92.5 45 L 107.5 45" fill="none" stroke="rgb(0, 0, 0)" stroke-miterlimit="10" transform="translate(97.5,0)scale(-1,1)translate(-97.5,0)" pointer-events="all"/><path d="M 54 69.62 L 69 69.62 L 74 74.62 L 74 87.5 L 59 87.5 L 54 82.5 L 54 69.62 Z" fill="rgb(255, 255, 255)" stroke="rgb(0, 0, 0)" stroke-miterlimit="10" transform="translate(64,0)scale(-1,1)translate(-64,0)" pointer-events="all"/><path d="M 54 69.62 L 69 69.62 L 74 74.62 L 59 74.62 Z" fill-opacity="0.05" fill="#000000" stroke="none" transform="translate(64,0)scale(-1,1)translate(-64,0)" pointer-events="all"/><path d="M 54 69.62 L 59 74.62 L 59 87.5 L 54 82.5 Z" fill-opacity="0.1" fill="#000000" stroke="none" transform="translate(64,0)scale(-1,1)translate(-64,0)" pointer-events="all"/><path d="M 59 87.5 L 59 74.62 L 54 69.62 M 59 74.62 L 74 74.62" fill="none" stroke="rgb(0, 0, 0)" stroke-miterlimit="10" transform="translate(64,0)scale(-1,1)translate(-64,0)" pointer-events="all"/><path d="M 68 69.62 L 83 69.62 L 88 74.62 L 88 87.5 L 73 87.5 L 68 82.5 L 68 69.62 Z" fill="rgb(255, 255, 255)" stroke="rgb(0, 0, 0)" stroke-miterlimit="10" transform="translate(78,0)scale(-1,1)translate(-78,0)" pointer-events="all"/><path d="M 68 69.62 L 83 69.62 L 88 74.62 L 73 74.62 Z" fill-opacity="0.05" fill="#000000" stroke="none" transform="translate(78,0)scale(-1,1)translate(-78,0)" pointer-events="all"/><path d="M 68 69.62 L 73 74.62 L 73 87.5 L 68 82.5 Z" fill-opacity="0.1" fill="#000000" stroke="none" transform="translate(78,0)scale(-1,1)translate(-78,0)" pointer-events="all"/><path d="M 73 87.5 L 73 74.62 L 68 69.62 M 73 74.62 L 88 74.62" fill="none" stroke="rgb(0, 0, 0)" stroke-miterlimit="10" transform="translate(78,0)scale(-1,1)translate(-78,0)" pointer-events="all"/><path d="M 83 69.62 L 98 69.62 L 103 74.62 L 103 87.5 L 88 87.5 L 83 82.5 L 83 69.62 Z" fill="rgb(255, 255, 255)" stroke="rgb(0, 0, 0)" stroke-miterlimit="10" transform="translate(93,0)scale(-1,1)translate(-93,0)" pointer-events="all"/><path d="M 83 69.62 L 98 69.62 L 103 74.62 L 88 74.62 Z" fill-opacity="0.05" fill="#000000" stroke="none" transform="translate(93,0)scale(-1,1)translate(-93,0)" pointer-events="all"/><path d="M 83 69.62 L 88 74.62 L 88 87.5 L 83 82.5 Z" fill-opacity="0.1" fill="#000000" stroke="none" transform="translate(93,0)scale(-1,1)translate(-93,0)" pointer-events="all"/><path d="M 88 87.5 L 88 74.62 L 83 69.62 M 88 74.62 L 103 74.62" fill="none" stroke="rgb(0, 0, 0)" stroke-miterlimit="10" transform="translate(93,0)scale(-1,1)translate(-93,0)" pointer-events="all"/><path d="M 54 57.5 L 69 57.5 L 74 62.5 L 74 75.38 L 59 75.38 L 54 70.38 L 54 57.5 Z" fill="rgb(255, 255, 255)" stroke="rgb(0, 0, 0)" stroke-miterlimit="10" transform="translate(64,0)scale(-1,1)translate(-64,0)" pointer-events="all"/><path d="M 54 57.5 L 69 57.5 L 74 62.5 L 59 62.5 Z" fill-opacity="0.05" fill="#000000" stroke="none" transform="translate(64,0)scale(-1,1)translate(-64,0)" pointer-events="all"/><path d="M 54 57.5 L 59 62.5 L 59 75.38 L 54 70.38 Z" fill-opacity="0.1" fill="#000000" stroke="none" transform="translate(64,0)scale(-1,1)translate(-64,0)" pointer-events="all"/><path d="M 59 75.38 L 59 62.5 L 54 57.5 M 59 62.5 L 74 62.5" fill="none" stroke="rgb(0, 0, 0)" stroke-miterlimit="10" transform="translate(64,0)scale(-1,1)translate(-64,0)" pointer-events="all"/><path d="M 68 57.5 L 83 57.5 L 88 62.5 L 88 75.38 L 73 75.38 L 68 70.38 L 68 57.5 Z" fill="rgb(255, 255, 255)" stroke="rgb(0, 0, 0)" stroke-miterlimit="10" transform="translate(78,0)scale(-1,1)translate(-78,0)" pointer-events="all"/><path d="M 68 57.5 L 83 57.5 L 88 62.5 L 73 62.5 Z" fill-opacity="0.05" fill="#000000" stroke="none" transform="translate(78,0)scale(-1,1)translate(-78,0)" pointer-events="all"/><path d="M 68 57.5 L 73 62.5 L 73 75.38 L 68 70.38 Z" fill-opacity="0.1" fill="#000000" stroke="none" transform="translate(78,0)scale(-1,1)translate(-78,0)" pointer-events="all"/><path d="M 73 75.38 L 73 62.5 L 68 57.5 M 73 62.5 L 88 62.5" fill="none" stroke="rgb(0, 0, 0)" stroke-miterlimit="10" transform="translate(78,0)scale(-1,1)translate(-78,0)" pointer-events="all"/><path d="M 83 57.5 L 98 57.5 L 103 62.5 L 103 75.38 L 88 75.38 L 83 70.38 L 83 57.5 Z" fill="rgb(255, 255, 255)" stroke="rgb(0, 0, 0)" stroke-miterlimit="10" transform="translate(93,0)scale(-1,1)translate(-93,0)" pointer-events="all"/><path d="M 83 57.5 L 98 57.5 L 103 62.5 L 88 62.5 Z" fill-opacity="0.05" fill="#000000" stroke="none" transform="translate(93,0)scale(-1,1)translate(-93,0)" pointer-events="all"/><path d="M 83 57.5 L 88 62.5 L 88 75.38 L 83 70.38 Z" fill-opacity="0.1" fill="#000000" stroke="none" transform="translate(93,0)scale(-1,1)translate(-93,0)" pointer-events="all"/><path d="M 88 75.38 L 88 62.5 L 83 57.5 M 88 62.5 L 103 62.5" fill="none" stroke="rgb(0, 0, 0)" stroke-miterlimit="10" transform="translate(93,0)scale(-1,1)translate(-93,0)" pointer-events="all"/><path d="M 54 44.5 L 69 44.5 L 74 49.5 L 74 62.38 L 59 62.38 L 54 57.38 L 54 44.5 Z" fill="rgb(255, 255, 255)" stroke="rgb(0, 0, 0)" stroke-miterlimit="10" transform="translate(64,0)scale(-1,1)translate(-64,0)" pointer-events="all"/><path d="M 54 44.5 L 69 44.5 L 74 49.5 L 59 49.5 Z" fill-opacity="0.05" fill="#000000" stroke="none" transform="translate(64,0)scale(-1,1)translate(-64,0)" pointer-events="all"/><path d="M 54 44.5 L 59 49.5 L 59 62.38 L 54 57.38 Z" fill-opacity="0.1" fill="#000000" stroke="none" transform="translate(64,0)scale(-1,1)translate(-64,0)" pointer-events="all"/><path d="M 59 62.38 L 59 49.5 L 54 44.5 M 59 49.5 L 74 49.5" fill="none" stroke="rgb(0, 0, 0)" stroke-miterlimit="10" transform="translate(64,0)scale(-1,1)translate(-64,0)" pointer-events="all"/><path d="M 68 44.5 L 83 44.5 L 88 49.5 L 88 62.38 L 73 62.38 L 68 57.38 L 68 44.5 Z" fill="rgb(255, 255, 255)" stroke="rgb(0, 0, 0)" stroke-miterlimit="10" transform="translate(78,0)scale(-1,1)translate(-78,0)" pointer-events="all"/><path d="M 68 44.5 L 83 44.5 L 88 49.5 L 73 49.5 Z" fill-opacity="0.05" fill="#000000" stroke="none" transform="translate(78,0)scale(-1,1)translate(-78,0)" pointer-events="all"/><path d="M 68 44.5 L 73 49.5 L 73 62.38 L 68 57.38 Z" fill-opacity="0.1" fill="#000000" stroke="none" transform="translate(78,0)scale(-1,1)translate(-78,0)" pointer-events="all"/><path d="M 73 62.38 L 73 49.5 L 68 44.5 M 73 49.5 L 88 49.5" fill="none" stroke="rgb(0, 0, 0)" stroke-miterlimit="10" transform="translate(78,0)scale(-1,1)translate(-78,0)" pointer-events="all"/><path d="M 83 44.5 L 98 44.5 L 103 49.5 L 103 62.38 L 88 62.38 L 83 57.38 L 83 44.5 Z" fill="rgb(255, 255, 255)" stroke="rgb(0, 0, 0)" stroke-miterlimit="10" transform="translate(93,0)scale(-1,1)translate(-93,0)" pointer-events="all"/><path d="M 83 44.5 L 98 44.5 L 103 49.5 L 88 49.5 Z" fill-opacity="0.05" fill="#000000" stroke="none" transform="translate(93,0)scale(-1,1)translate(-93,0)" pointer-events="all"/><path d="M 83 44.5 L 88 49.5 L 88 62.38 L 83 57.38 Z" fill-opacity="0.1" fill="#000000" stroke="none" transform="translate(93,0)scale(-1,1)translate(-93,0)" pointer-events="all"/><path d="M 88 62.38 L 88 49.5 L 83 44.5 M 88 49.5 L 103 49.5" fill="none" stroke="rgb(0, 0, 0)" stroke-miterlimit="10" transform="translate(93,0)scale(-1,1)translate(-93,0)" pointer-events="all"/><path d="M 49.5 74.12 L 64.5 74.12 L 69.5 79.12 L 69.5 92 L 54.5 92 L 49.5 87 L 49.5 74.12 Z" fill="#cce5ff" stroke="#36393d" stroke-miterlimit="10" transform="translate(59.5,0)scale(-1,1)translate(-59.5,0)" pointer-events="all"/><path d="M 49.5 74.12 L 64.5 74.12 L 69.5 79.12 L 54.5 79.12 Z" fill-opacity="0.05" fill="#000000" stroke="none" transform="translate(59.5,0)scale(-1,1)translate(-59.5,0)" pointer-events="all"/><path d="M 49.5 74.12 L 54.5 79.12 L 54.5 92 L 49.5 87 Z" fill-opacity="0.1" fill="#000000" stroke="none" transform="translate(59.5,0)scale(-1,1)translate(-59.5,0)" pointer-events="all"/><path d="M 54.5 92 L 54.5 79.12 L 49.5 74.12 M 54.5 79.12 L 69.5 79.12" fill="none" stroke="#36393d" stroke-miterlimit="10" transform="translate(59.5,0)scale(-1,1)translate(-59.5,0)" pointer-events="all"/><path d="M 63.5 74.12 L 78.5 74.12 L 83.5 79.12 L 83.5 92 L 68.5 92 L 63.5 87 L 63.5 74.12 Z" fill="rgb(255, 255, 255)" stroke="rgb(0, 0, 0)" stroke-miterlimit="10" transform="translate(73.5,0)scale(-1,1)translate(-73.5,0)" pointer-events="all"/><path d="M 63.5 74.12 L 78.5 74.12 L 83.5 79.12 L 68.5 79.12 Z" fill-opacity="0.05" fill="#000000" stroke="none" transform="translate(73.5,0)scale(-1,1)translate(-73.5,0)" pointer-events="all"/><path d="M 63.5 74.12 L 68.5 79.12 L 68.5 92 L 63.5 87 Z" fill-opacity="0.1" fill="#000000" stroke="none" transform="translate(73.5,0)scale(-1,1)translate(-73.5,0)" pointer-events="all"/><path d="M 68.5 92 L 68.5 79.12 L 63.5 74.12 M 68.5 79.12 L 83.5 79.12" fill="none" stroke="rgb(0, 0, 0)" stroke-miterlimit="10" transform="translate(73.5,0)scale(-1,1)translate(-73.5,0)" pointer-events="all"/><path d="M 78.5 74.12 L 93.5 74.12 L 98.5 79.12 L 98.5 92 L 83.5 92 L 78.5 87 L 78.5 74.12 Z" fill="rgb(255, 255, 255)" stroke="rgb(0, 0, 0)" stroke-miterlimit="10" transform="translate(88.5,0)scale(-1,1)translate(-88.5,0)" pointer-events="all"/><path d="M 78.5 74.12 L 93.5 74.12 L 98.5 79.12 L 83.5 79.12 Z" fill-opacity="0.05" fill="#000000" stroke="none" transform="translate(88.5,0)scale(-1,1)translate(-88.5,0)" pointer-events="all"/><path d="M 78.5 74.12 L 83.5 79.12 L 83.5 92 L 78.5 87 Z" fill-opacity="0.1" fill="#000000" stroke="none" transform="translate(88.5,0)scale(-1,1)translate(-88.5,0)" pointer-events="all"/><path d="M 83.5 92 L 83.5 79.12 L 78.5 74.12 M 83.5 79.12 L 98.5 79.12" fill="none" stroke="rgb(0, 0, 0)" stroke-miterlimit="10" transform="translate(88.5,0)scale(-1,1)translate(-88.5,0)" pointer-events="all"/><path d="M 49.5 62 L 64.5 62 L 69.5 67 L 69.5 79.88 L 54.5 79.88 L 49.5 74.88 L 49.5 62 Z" fill="rgb(255, 255, 255)" stroke="rgb(0, 0, 0)" stroke-miterlimit="10" transform="translate(59.5,0)scale(-1,1)translate(-59.5,0)" pointer-events="all"/><path d="M 49.5 62 L 64.5 62 L 69.5 67 L 54.5 67 Z" fill-opacity="0.05" fill="#000000" stroke="none" transform="translate(59.5,0)scale(-1,1)translate(-59.5,0)" pointer-events="all"/><path d="M 49.5 62 L 54.5 67 L 54.5 79.88 L 49.5 74.88 Z" fill-opacity="0.1" fill="#000000" stroke="none" transform="translate(59.5,0)scale(-1,1)translate(-59.5,0)" pointer-events="all"/><path d="M 54.5 79.88 L 54.5 67 L 49.5 62 M 54.5 67 L 69.5 67" fill="none" stroke="rgb(0, 0, 0)" stroke-miterlimit="10" transform="translate(59.5,0)scale(-1,1)translate(-59.5,0)" pointer-events="all"/><path d="M 63.5 62 L 78.5 62 L 83.5 67 L 83.5 79.88 L 68.5 79.88 L 63.5 74.88 L 63.5 62 Z" fill="rgb(255, 255, 255)" stroke="rgb(0, 0, 0)" stroke-miterlimit="10" transform="translate(73.5,0)scale(-1,1)translate(-73.5,0)" pointer-events="all"/><path d="M 63.5 62 L 78.5 62 L 83.5 67 L 68.5 67 Z" fill-opacity="0.05" fill="#000000" stroke="none" transform="translate(73.5,0)scale(-1,1)translate(-73.5,0)" pointer-events="all"/><path d="M 63.5 62 L 68.5 67 L 68.5 79.88 L 63.5 74.88 Z" fill-opacity="0.1" fill="#000000" stroke="none" transform="translate(73.5,0)scale(-1,1)translate(-73.5,0)" pointer-events="all"/><path d="M 68.5 79.88 L 68.5 67 L 63.5 62 M 68.5 67 L 83.5 67" fill="none" stroke="rgb(0, 0, 0)" stroke-miterlimit="10" transform="translate(73.5,0)scale(-1,1)translate(-73.5,0)" pointer-events="all"/><path d="M 78.5 62 L 93.5 62 L 98.5 67 L 98.5 79.88 L 83.5 79.88 L 78.5 74.88 L 78.5 62 Z" fill="rgb(255, 255, 255)" stroke="rgb(0, 0, 0)" stroke-miterlimit="10" transform="translate(88.5,0)scale(-1,1)translate(-88.5,0)" pointer-events="all"/><path d="M 78.5 62 L 93.5 62 L 98.5 67 L 83.5 67 Z" fill-opacity="0.05" fill="#000000" stroke="none" transform="translate(88.5,0)scale(-1,1)translate(-88.5,0)" pointer-events="all"/><path d="M 78.5 62 L 83.5 67 L 83.5 79.88 L 78.5 74.88 Z" fill-opacity="0.1" fill="#000000" stroke="none" transform="translate(88.5,0)scale(-1,1)translate(-88.5,0)" pointer-events="all"/><path d="M 83.5 79.88 L 83.5 67 L 78.5 62 M 83.5 67 L 98.5 67" fill="none" stroke="rgb(0, 0, 0)" stroke-miterlimit="10" transform="translate(88.5,0)scale(-1,1)translate(-88.5,0)" pointer-events="all"/><path d="M 49.5 49 L 64.5 49 L 69.5 54 L 69.5 66.88 L 54.5 66.88 L 49.5 61.88 L 49.5 49 Z" fill="rgb(255, 255, 255)" stroke="rgb(0, 0, 0)" stroke-miterlimit="10" transform="translate(59.5,0)scale(-1,1)translate(-59.5,0)" pointer-events="all"/><path d="M 49.5 49 L 64.5 49 L 69.5 54 L 54.5 54 Z" fill-opacity="0.05" fill="#000000" stroke="none" transform="translate(59.5,0)scale(-1,1)translate(-59.5,0)" pointer-events="all"/><path d="M 49.5 49 L 54.5 54 L 54.5 66.88 L 49.5 61.88 Z" fill-opacity="0.1" fill="#000000" stroke="none" transform="translate(59.5,0)scale(-1,1)translate(-59.5,0)" pointer-events="all"/><path d="M 54.5 66.88 L 54.5 54 L 49.5 49 M 54.5 54 L 69.5 54" fill="none" stroke="rgb(0, 0, 0)" stroke-miterlimit="10" transform="translate(59.5,0)scale(-1,1)translate(-59.5,0)" pointer-events="all"/><path d="M 63.5 49 L 78.5 49 L 83.5 54 L 83.5 66.88 L 68.5 66.88 L 63.5 61.88 L 63.5 49 Z" fill="rgb(255, 255, 255)" stroke="rgb(0, 0, 0)" stroke-miterlimit="10" transform="translate(73.5,0)scale(-1,1)translate(-73.5,0)" pointer-events="all"/><path d="M 63.5 49 L 78.5 49 L 83.5 54 L 68.5 54 Z" fill-opacity="0.05" fill="#000000" stroke="none" transform="translate(73.5,0)scale(-1,1)translate(-73.5,0)" pointer-events="all"/><path d="M 63.5 49 L 68.5 54 L 68.5 66.88 L 63.5 61.88 Z" fill-opacity="0.1" fill="#000000" stroke="none" transform="translate(73.5,0)scale(-1,1)translate(-73.5,0)" pointer-events="all"/><path d="M 68.5 66.88 L 68.5 54 L 63.5 49 M 68.5 54 L 83.5 54" fill="none" stroke="rgb(0, 0, 0)" stroke-miterlimit="10" transform="translate(73.5,0)scale(-1,1)translate(-73.5,0)" pointer-events="all"/><path d="M 78.5 49 L 93.5 49 L 98.5 54 L 98.5 66.88 L 83.5 66.88 L 78.5 61.88 L 78.5 49 Z" fill="#cdeb8b" stroke="#36393d" stroke-miterlimit="10" transform="translate(88.5,0)scale(-1,1)translate(-88.5,0)" pointer-events="all"/><path d="M 78.5 49 L 93.5 49 L 98.5 54 L 83.5 54 Z" fill-opacity="0.05" fill="#000000" stroke="none" transform="translate(88.5,0)scale(-1,1)translate(-88.5,0)" pointer-events="all"/><path d="M 78.5 49 L 83.5 54 L 83.5 66.88 L 78.5 61.88 Z" fill-opacity="0.1" fill="#000000" stroke="none" transform="translate(88.5,0)scale(-1,1)translate(-88.5,0)" pointer-events="all"/><path d="M 83.5 66.88 L 83.5 54 L 78.5 49 M 83.5 54 L 98.5 54" fill="none" stroke="#36393d" stroke-miterlimit="10" transform="translate(88.5,0)scale(-1,1)translate(-88.5,0)" pointer-events="all"/></g></svg>